<svg xmlns="http://www.w3.org/2000/svg" viewBox="1850.0 895.0 505 505">
  <rect x="1850.0" y="895.0" width="505" height="505" fill="#1A1A1A"/>
  <path fill="#AF862D" stroke="#AF862D" stroke-width="4.5" stroke-linejoin="round" fill-rule="nonzero" d="M 2102.605469 957.304688 C 1996.871094 957.304688 1910.847656 1043.328125 1910.847656 1149.0625 C 1910.847656 1254.800781 1996.871094 1340.820312 2102.605469 1340.820312 C 2208.339844 1340.820312 2294.363281 1254.800781 2294.363281 1149.0625 C 2294.363281 1043.328125 2208.339844 957.304688 2102.605469 957.304688 M 2102.605469 1347.054688 C 2049.722656 1347.054688 2000 1326.457031 1962.605469 1289.0625 C 1925.210938 1251.667969 1904.617188 1201.949219 1904.617188 1149.0625 C 1904.617188 1096.179688 1925.210938 1046.457031 1962.605469 1009.0625 C 2000 971.667969 2049.722656 951.074219 2102.605469 951.074219 C 2155.492188 951.074219 2205.210938 971.667969 2242.605469 1009.0625 C 2280 1046.457031 2300.597656 1096.179688 2300.597656 1149.0625 C 2300.597656 1201.949219 2280 1251.667969 2242.605469 1289.0625 C 2205.210938 1326.457031 2155.492188 1347.054688 2102.605469 1347.054688 "/>
  <path fill="#AF862D" stroke="#AF862D" stroke-width="4.5" stroke-linejoin="round" fill-rule="nonzero" d="M 2106.320312 1082.984375 C 2106.132812 1090.011719 2105.859375 1100.105469 2099.089844 1110.296875 C 2097.226562 1113.101562 2091.910156 1120.367188 2082.3125 1125.039062 C 2076.109375 1128.066406 2070.777344 1128.707031 2064.855469 1129.417969 C 2056.378906 1130.441406 2049.289062 1129.925781 2044.496094 1129.28125 L 2044.496094 1036.335938 C 2053.230469 1034.113281 2060.519531 1034.140625 2065.246094 1034.511719 C 2071.726562 1035.023438 2082.109375 1035.839844 2091.25 1043.34375 C 2091.800781 1043.796875 2094.300781 1045.875 2096.929688 1049.230469 C 2106.886719 1061.949219 2106.472656 1077.386719 2106.320312 1082.984375 M 2122.164062 1046.289062 C 2121.429688 1045.390625 2119.492188 1043.089844 2116.484375 1040.503906 C 2103.167969 1029.058594 2086.589844 1027.265625 2077.160156 1027.152344 L 2003.351562 1027.152344 L 2003.351562 1031.359375 C 2004.871094 1031.359375 2008.191406 1031.574219 2011.65625 1033.617188 C 2015.363281 1035.804688 2017.101562 1038.824219 2017.808594 1040.085938 C 2019.898438 1043.820312 2020.128906 1047.355469 2020.121094 1049.101562 C 2020.121094 1049.101562 2020.175781 1196.117188 2019.871094 1199.835938 C 2019.570312 1203.558594 2014.707031 1208.839844 2011.972656 1210.734375 C 2009.238281 1212.625 2003.5625 1212.3125 2003.5625 1212.3125 L 2003.351562 1216.304688 L 2056.972656 1216.304688 L 2056.972656 1211.363281 C 2056.972656 1211.363281 2052.453125 1210.101562 2048.667969 1206.527344 C 2044.882812 1202.953125 2044.566406 1195.59375 2044.566406 1195.59375 L 2044.777344 1136.394531 C 2044.777344 1136.394531 2056.027344 1137.132812 2072.535156 1136.394531 C 2078.101562 1136.148438 2082.191406 1135.691406 2087.667969 1134.34375 C 2087.667969 1134.34375 2096.167969 1132.253906 2103.238281 1128.511719 C 2112.847656 1123.421875 2129.195312 1109.71875 2132.570312 1087.503906 C 2132.9375 1085.097656 2135.9375 1063.160156 2122.164062 1046.289062 "/>
  <path fill="#AF862D" stroke="#AF862D" stroke-width="4.5" stroke-linejoin="round" fill-rule="nonzero" d="M 2165.621094 1094.515625 C 2154.339844 1092.964844 2144.464844 1093.179688 2136.730469 1093.910156 C 2135.960938 1096.902344 2134.972656 1099.761719 2133.804688 1102.476562 C 2139.285156 1101.398438 2148.921875 1100.339844 2159.929688 1103.742188 C 2164.863281 1105.269531 2178.4375 1109.6875 2186.789062 1123.253906 C 2191.035156 1130.144531 2192.351562 1136.832031 2192.820312 1140.917969 L 2199.269531 1140.917969 L 2199.269531 1104.046875 C 2191.121094 1100.457031 2179.703125 1096.445312 2165.621094 1094.515625 "/>
  <path fill="#AF862D" stroke="#AF862D" stroke-width="4.5" stroke-linejoin="round" fill-rule="nonzero" d="M 2199.179688 1221.140625 C 2197.535156 1226.128906 2192.546875 1239.019531 2179.359375 1249.285156 C 2175.386719 1252.382812 2162.800781 1261.363281 2146.417969 1261.644531 C 2115.441406 1262.175781 2090.101562 1231.277344 2082.910156 1205.210938 C 2078.570312 1189.488281 2080.335938 1173.714844 2080.945312 1168.253906 C 2082.285156 1156.289062 2085.324219 1146.578125 2087.964844 1139.78125 C 2082.332031 1141.097656 2077.921875 1141.527344 2072.773438 1141.757812 C 2069.238281 1141.914062 2065.703125 1141.996094 2062.195312 1142.042969 C 2061.285156 1144.652344 2060.128906 1148.285156 2059.078125 1152.695312 C 2056.9375 1161.679688 2051.042969 1187.957031 2062.441406 1216.304688 C 2065.464844 1223.832031 2073.46875 1242.996094 2093.5625 1256.785156 C 2125.636719 1278.792969 2162.375 1269.171875 2170.316406 1267.089844 C 2184.066406 1263.488281 2194.457031 1257.652344 2201.019531 1253.316406 L 2201.863281 1221.039062 C 2200.96875 1221.074219 2200.074219 1221.109375 2199.179688 1221.140625 "/>
</svg>